<svg xmlns="http://www.w3.org/2000/svg" xmlns:xlink="http://www.w3.org/1999/xlink" width="1040" height="494.2"><rect width="1040" height="494.2" rx="5" ry="5" class="a"/><svg y="0%" x="0%"><circle cx="20" cy="20" r="6" fill="#ff5f58"/><circle cx="40" cy="20" r="6" fill="#ffbd2e"/><circle cx="60" cy="20" r="6" fill="#18c132"/></svg><svg height="434.2" viewBox="0 0 100 43.42" width="1000" x="15" xmlns="http://www.w3.org/2000/svg" xmlns:xlink="http://www.w3.org/1999/xlink" y="50"><style>@keyframes n{0%{transform:translateX(0)}13.8%{transform:translateX(-200px)}15.9%{transform:translateX(-400px)}24.1%{transform:translateX(-500px)}27.7%{transform:translateX(-600px)}38%{transform:translateX(-700px)}51.3%{transform:translateX(-900px)}51.4%{transform:translateX(-1000px)}53.1%{transform:translateX(-1300px)}53.2%{transform:translateX(-1500px)}53.6%{transform:translateX(-1600px)}53.7%{transform:translateX(-1800px)}55.4%{transform:translateX(-2000px)}to{transform:translateX(-2100px)}}.a{fill:#282d35}.f{fill:#b9c0cb}.i{fill:#b9bfca}.j{fill:#71bef2}.k{fill:#a8cc8c}</style><g font-size="1.67" font-family="Monaco,Consolas,Menlo,'Bitstream Vera Sans Mono','Powerline Symbols',monospace"><defs><symbol id="1"><path class="f" d="M0 0h1v2.171H0z"/><text y="1.67" fill="#282d35" font-weight="700">%</text></symbol><symbol id="2"><text y="1.67" fill="#71bef2" font-weight="700">~/baidu/npm</text></symbol><symbol id="3"><text y="1.67" class="i">▶</text></symbol><symbol id="4"><text y="1.67" class="i">▶</text><text x="1.002" y="1.67" class="f">pdir</text><text x="6.012" y="1.67" class="f">-m</text><text x="9.018" y="1.67" class="f">1</text></symbol><symbol id="5"><text y="1.67" class="j">npm/</text></symbol><symbol id="6"><text y="1.67" class="j">├──</text><text x="4.008" y="1.67" class="j">process-scripts/</text></symbol><symbol id="7"><text y="1.67" class="j">├──</text><text x="4.008" y="1.67" class="j">rec.json</text></symbol><symbol id="8"><text y="1.67" class="j">├──</text><text x="4.008" y="1.67" class="j">shields/</text></symbol><symbol id="9"><text y="1.67" class="j">└──</text><text x="4.008" y="1.67" class="j">test.json</text></symbol><symbol id="10"><text y="1.67" class="k">2</text><text x="2.004" y="1.67" class="k">directories,</text><text x="15.03" y="1.67" class="k">2</text><text x="17.034" y="1.67" class="k">files.</text></symbol><symbol id="11"><text y="1.67" class="f">copied!</text></symbol><symbol id="a"><path fill="transparent" d="M0 0h100v21H0z"/></symbol><symbol id="b"><path fill="#6f7683" d="M0 0h1.102v2.171H0z"/></symbol></defs><path class="a" d="M0 0h100v43.42H0z"/><g style="animation-duration:6.831247s;animation-iteration-count:infinite;animation-name:n;animation-timing-function:steps(1,end)"><svg width="2200"><svg><use xlink:href="#a"/><use xlink:href="#b" x="-.004"/></svg><svg x="100"><use xlink:href="#a"/><use xlink:href="#b" x="-.004" y="2.146"/><use xlink:href="#1"/></svg><svg x="200"><use xlink:href="#a"/><use xlink:href="#b" x="-.004" y="2.146"/><use xlink:href="#1"/></svg><svg x="300"><use xlink:href="#a"/><use xlink:href="#b" x=".996" y="6.488"/><use xlink:href="#1"/><use xlink:href="#2" y="4.342"/><use xlink:href="#3" y="6.513"/></svg><svg x="400"><use xlink:href="#a"/><use xlink:href="#b" x=".996" y="6.488"/><use xlink:href="#1"/><use xlink:href="#2" y="4.342"/><use xlink:href="#3" y="6.513"/></svg><svg x="500"><use xlink:href="#a"/><use xlink:href="#b" x="1.996" y="6.488"/><use xlink:href="#1"/><use xlink:href="#2" y="4.342"/><text y="8.183" class="i">▶</text><text x="1.002" y="8.183" class="f">p</text></svg><svg x="600"><use xlink:href="#a"/><use xlink:href="#b" x="2.996" y="6.488"/><use xlink:href="#1"/><use xlink:href="#2" y="4.342"/><text y="8.183" class="i">▶</text><text x="1.002" y="8.183" class="f">pd</text></svg><svg x="700"><use xlink:href="#a"/><use xlink:href="#b" x="9.996" y="6.488"/><use xlink:href="#1"/><use xlink:href="#2" y="4.342"/><use xlink:href="#4" y="6.513"/></svg><svg x="800"><use xlink:href="#a"/><use xlink:href="#b" x="9.996" y="6.488"/><use xlink:href="#1"/><use xlink:href="#2" y="4.342"/><use xlink:href="#4" y="6.513"/></svg><svg x="900"><use xlink:href="#a"/><use xlink:href="#b" x="-.004" y="8.659"/><use xlink:href="#1"/><use xlink:href="#2" y="4.342"/><use xlink:href="#4" y="6.513"/></svg><svg x="1000"><use xlink:href="#a"/><use xlink:href="#b" x="-.004" y="8.659"/><use xlink:href="#1"/><use xlink:href="#2" y="4.342"/><use xlink:href="#4" y="6.513"/></svg><svg x="1100"><use xlink:href="#a"/><use xlink:href="#b" x="-.004" y="10.83"/><use xlink:href="#1"/><use xlink:href="#2" y="4.342"/><use xlink:href="#4" y="6.513"/><use xlink:href="#5" y="8.684"/></svg><svg x="1200"><use xlink:href="#a"/><use xlink:href="#b" x="-.004" y="13.001"/><use xlink:href="#1"/><use xlink:href="#2" y="4.342"/><use xlink:href="#4" y="6.513"/><use xlink:href="#5" y="8.684"/><use xlink:href="#6" y="10.855"/></svg><svg x="1300"><use xlink:href="#a"/><use xlink:href="#b" x="-.004" y="17.343"/><use xlink:href="#1"/><use xlink:href="#2" y="4.342"/><use xlink:href="#4" y="6.513"/><use xlink:href="#5" y="8.684"/><use xlink:href="#6" y="10.855"/><use xlink:href="#7" y="13.026"/><use xlink:href="#8" y="15.197"/></svg><svg x="1400"><use xlink:href="#a"/><use xlink:href="#b" x="-.004" y="19.514"/><use xlink:href="#1"/><use xlink:href="#2" y="4.342"/><use xlink:href="#4" y="6.513"/><use xlink:href="#5" y="8.684"/><use xlink:href="#6" y="10.855"/><use xlink:href="#7" y="13.026"/><use xlink:href="#8" y="15.197"/><use xlink:href="#9" y="17.368"/></svg><svg x="1500"><use xlink:href="#a"/><use xlink:href="#b" x="-.004" y="23.856"/><use xlink:href="#1"/><use xlink:href="#2" y="4.342"/><use xlink:href="#4" y="6.513"/><use xlink:href="#5" y="8.684"/><use xlink:href="#6" y="10.855"/><use xlink:href="#7" y="13.026"/><use xlink:href="#8" y="15.197"/><use xlink:href="#9" y="17.368"/><use xlink:href="#10" y="21.71"/></svg><svg x="1600"><use xlink:href="#a"/><use xlink:href="#b" x="-.004" y="26.027"/><use xlink:href="#1"/><use xlink:href="#2" y="4.342"/><use xlink:href="#4" y="6.513"/><use xlink:href="#5" y="8.684"/><use xlink:href="#6" y="10.855"/><use xlink:href="#7" y="13.026"/><use xlink:href="#8" y="15.197"/><use xlink:href="#9" y="17.368"/><use xlink:href="#10" y="21.71"/><use xlink:href="#11" y="23.881"/></svg><svg x="1700"><use xlink:href="#a"/><use xlink:href="#b" x="-.004" y="28.198"/><use xlink:href="#1"/><use xlink:href="#2" y="4.342"/><use xlink:href="#4" y="6.513"/><use xlink:href="#5" y="8.684"/><use xlink:href="#6" y="10.855"/><use xlink:href="#7" y="13.026"/><use xlink:href="#8" y="15.197"/><use xlink:href="#9" y="17.368"/><use xlink:href="#10" y="21.71"/><use xlink:href="#11" y="23.881"/><use xlink:href="#1" y="26.052"/></svg><svg x="1800"><use xlink:href="#a"/><use xlink:href="#b" x="-.004" y="28.198"/><use xlink:href="#1"/><use xlink:href="#2" y="4.342"/><use xlink:href="#4" y="6.513"/><use xlink:href="#5" y="8.684"/><use xlink:href="#6" y="10.855"/><use xlink:href="#7" y="13.026"/><use xlink:href="#8" y="15.197"/><use xlink:href="#9" y="17.368"/><use xlink:href="#10" y="21.71"/><use xlink:href="#11" y="23.881"/><use xlink:href="#1" y="26.052"/></svg><svg x="1900"><use xlink:href="#a"/><use xlink:href="#b" x=".996" y="32.54"/><use xlink:href="#1"/><use xlink:href="#2" y="4.342"/><use xlink:href="#4" y="6.513"/><use xlink:href="#5" y="8.684"/><use xlink:href="#6" y="10.855"/><use xlink:href="#7" y="13.026"/><use xlink:href="#8" y="15.197"/><use xlink:href="#9" y="17.368"/><use xlink:href="#10" y="21.71"/><use xlink:href="#11" y="23.881"/><use xlink:href="#1" y="26.052"/><use xlink:href="#2" y="30.394"/><use xlink:href="#3" y="32.565"/></svg><svg x="2000"><use xlink:href="#a"/><use xlink:href="#b" x=".996" y="32.54"/><use xlink:href="#1"/><use xlink:href="#2" y="4.342"/><use xlink:href="#4" y="6.513"/><use xlink:href="#5" y="8.684"/><use xlink:href="#6" y="10.855"/><use xlink:href="#7" y="13.026"/><use xlink:href="#8" y="15.197"/><use xlink:href="#9" y="17.368"/><use xlink:href="#10" y="21.71"/><use xlink:href="#11" y="23.881"/><use xlink:href="#1" y="26.052"/><use xlink:href="#2" y="30.394"/><use xlink:href="#3" y="32.565"/></svg><svg x="2100"><use xlink:href="#a"/><use xlink:href="#b" x="-.004" y="34.711"/><use xlink:href="#1"/><use xlink:href="#2" y="4.342"/><use xlink:href="#4" y="6.513"/><use xlink:href="#5" y="8.684"/><use xlink:href="#6" y="10.855"/><use xlink:href="#7" y="13.026"/><use xlink:href="#8" y="15.197"/><use xlink:href="#9" y="17.368"/><use xlink:href="#10" y="21.71"/><use xlink:href="#11" y="23.881"/><use xlink:href="#1" y="26.052"/><use xlink:href="#2" y="30.394"/><use xlink:href="#3" y="32.565"/></svg></svg></g></g></svg></svg>